<?xml version="1.0" encoding="UTF-8" standalone="no"?>
<svg
   xmlns:dc="http://purl.org/dc/elements/1.1/"
   xmlns:cc="http://creativecommons.org/ns#"
   xmlns:rdf="http://www.w3.org/1999/02/22-rdf-syntax-ns#"
   xmlns:svg="http://www.w3.org/2000/svg"
   xmlns="http://www.w3.org/2000/svg"
   viewBox="0 0 947.79602 1024"
   height="1024"
   width="947.79602"
   xml:space="preserve"
   id="svg2"
   version="1.1"><metadata
     id="metadata8"><rdf:RDF><cc:Work
         rdf:about=""><dc:format>image/svg+xml</dc:format><dc:type
           rdf:resource="http://purl.org/dc/dcmitype/StillImage" /></cc:Work></rdf:RDF></metadata><defs
     id="defs6"><clipPath
       id="clipPath18"
       clipPathUnits="userSpaceOnUse"><path
         id="path16"
         d="M 0,768 H 710.847 V 0 H 0 Z" /></clipPath></defs><g
     transform="matrix(1.3333333,0,0,-1.3333333,0,1024)"
     id="g10"><g
       id="g12"><g
         clip-path="url(#clipPath18)"
         id="g14"><g
           transform="translate(633.7471,371.4917)"
           id="g20"><path
             id="path22"
             style="fill:#204496;fill-opacity:1;fill-rule:nonzero;stroke:none"
             d="m 0,0 c 33.004,-37.774 51.183,-86.114 51.183,-136.163 0,-114.316 -93.028,-207.329 -207.375,-207.329 h -451.639 v 259.258 h 117.315 v -141.943 h 334.324 c 49.661,0 90.061,40.384 90.061,90.014 0,28.715 -13.752,55.674 -36.889,72.58 l -38.581,22.282 V 66.318 L -103.02,88.6 c 23.137,16.906 36.889,43.865 36.889,72.58 0,49.629 -40.4,90.013 -90.061,90.013 H -490.516 V 109.25 h -117.315 v 259.258 h 451.639 c 114.347,0 207.375,-93.012 207.375,-207.328 0,-50.049 -18.164,-98.39 -51.136,-136.117 L -10.799,12.508 Z" /></g><g
           transform="translate(454.0299,442.6573)"
           id="g24"><path
             id="path26"
             style="fill:#e61e25;fill-opacity:1;fill-rule:nonzero;stroke:none"
             d="m 0,0 v -117.315 h -155.384 v -141.954 h -117.315 v 141.954 H -428.114 V 0 h 155.415 v 141.934 h 117.315 l 0,-141.934 z" /></g></g></g></g></svg>